<svg id="visual" viewBox="0 0 900 600" width="900" height="600" xmlns="http://www.w3.org/2000/svg" xmlns:xlink="http://www.w3.org/1999/xlink" version="1.1"><rect x="0" y="0" width="900" height="600" fill="#000000"></rect><defs><linearGradient id="grad1_0" x1="33.3%" y1="0%" x2="100%" y2="100%"><stop offset="20%" stop-color="#000000" stop-opacity="1"></stop><stop offset="80%" stop-color="#000000" stop-opacity="1"></stop></linearGradient></defs><defs><linearGradient id="grad2_0" x1="0%" y1="0%" x2="66.7%" y2="100%"><stop offset="20%" stop-color="#000000" stop-opacity="1"></stop><stop offset="80%" stop-color="#000000" stop-opacity="1"></stop></linearGradient></defs><g transform="translate(900, 0)"><path d="M0 486.7C-54.2 450.1 -108.5 413.5 -160.3 387.1C-212.2 360.8 -261.8 344.7 -314 314C-366.1 283.2 -421 237.7 -441.6 182.9C-462.2 128.1 -448.6 64.1 -435 0L0 0Z" fill="#ffffff"></path></g><g transform="translate(0, 600)"><path d="M0 -413C64.2 -437.2 128.3 -461.5 184.5 -445.3C240.6 -429.2 288.7 -372.6 318.2 -318.2C347.7 -263.8 358.4 -211.5 383.4 -158.8C408.4 -106.1 447.6 -53.1 486.7 0L0 0Z" fill="#ffffff"></path></g></svg>