<svg id="visual" viewBox="0 0 900 600" width="900" height="600" xmlns="http://www.w3.org/2000/svg" xmlns:xlink="http://www.w3.org/1999/xlink" version="1.1"><g stroke-width="1" stroke-linejoin="bevel"><path d="M437 341.9L402 349.9L438 391.6Z" fill="#303030" stroke="#303030"></path><path d="M402 349.9L319 390.6L438 391.6Z" fill="#5e5e5e" stroke="#5e5e5e"></path><path d="M437 341.9L351 280.1L402 349.9Z" fill="#fdfdfd" stroke="#fdfdfd"></path><path d="M402 349.9L351 280.1L319 390.6Z" fill="#000000" stroke="#000000"></path><path d="M280 308.9L309 397.6L319 390.6Z" fill="#c5c5c5" stroke="#c5c5c5"></path><path d="M369 521.3L456 486.3L438 391.6Z" fill="#1b1b1b" stroke="#1b1b1b"></path><path d="M369 521.3L438 391.6L319 390.6Z" fill="#aaaaaa" stroke="#aaaaaa"></path><path d="M516 251.1L456 246.1L437 341.9Z" fill="#aaaaaa" stroke="#aaaaaa"></path><path d="M564 305.9L437 341.9L438 391.6Z" fill="#e1e1e1" stroke="#e1e1e1"></path><path d="M437 341.9L456 246.1L351 280.1Z" fill="#e1e1e1" stroke="#e1e1e1"></path><path d="M456 486.3L543 442.6L438 391.6Z" fill="#464646" stroke="#464646"></path><path d="M564 305.9L516 251.1L437 341.9Z" fill="#303030" stroke="#303030"></path><path d="M543 442.6L564 305.9L438 391.6Z" fill="#1b1b1b" stroke="#1b1b1b"></path><path d="M351 280.1L280 308.9L319 390.6Z" fill="#aaaaaa" stroke="#aaaaaa"></path><path d="M309 397.6L369 521.3L319 390.6Z" fill="#c5c5c5" stroke="#c5c5c5"></path><path d="M543 442.6L589 319.9L564 305.9Z" fill="#fdfdfd" stroke="#fdfdfd"></path><path d="M564 305.9L613 225.1L516 251.1Z" fill="#464646" stroke="#464646"></path><path d="M485 600L511 520.3L456 486.3Z" fill="#e1e1e1" stroke="#e1e1e1"></path><path d="M456 486.3L511 520.3L543 442.6Z" fill="#767676" stroke="#767676"></path><path d="M441 120.7L441 180.4L564 103.7Z" fill="#5e5e5e" stroke="#5e5e5e"></path><path d="M516 251.1L441 180.4L456 246.1Z" fill="#767676" stroke="#767676"></path><path d="M456 246.1L366 180.4L351 280.1Z" fill="#303030" stroke="#303030"></path><path d="M351 280.1L241 255.1L280 308.9Z" fill="#8f8f8f" stroke="#8f8f8f"></path><path d="M441 180.4L366 180.4L456 246.1Z" fill="#1b1b1b" stroke="#1b1b1b"></path><path d="M620 511.3L619 406.6L543 442.6Z" fill="#e1e1e1" stroke="#e1e1e1"></path><path d="M543 442.6L619 406.6L589 319.9Z" fill="#000000" stroke="#000000"></path><path d="M309 397.6L276 518.3L369 521.3Z" fill="#1b1b1b" stroke="#1b1b1b"></path><path d="M222 487.3L276 518.3L309 397.6Z" fill="#fdfdfd" stroke="#fdfdfd"></path><path d="M309 156.4L241 255.1L351 280.1Z" fill="#303030" stroke="#303030"></path><path d="M181 424.6L222 487.3L309 397.6Z" fill="#464646" stroke="#464646"></path><path d="M178 346.9L309 397.6L280 308.9Z" fill="#aaaaaa" stroke="#aaaaaa"></path><path d="M716 312.9L613 225.1L589 319.9Z" fill="#e1e1e1" stroke="#e1e1e1"></path><path d="M589 319.9L613 225.1L564 305.9Z" fill="#e1e1e1" stroke="#e1e1e1"></path><path d="M241 600L380 600L276 518.3Z" fill="#5e5e5e" stroke="#5e5e5e"></path><path d="M276 518.3L380 600L369 521.3Z" fill="#464646" stroke="#464646"></path><path d="M369 521.3L380 600L456 486.3Z" fill="#e1e1e1" stroke="#e1e1e1"></path><path d="M299 127.7L309 156.4L355 91.7Z" fill="#303030" stroke="#303030"></path><path d="M366 180.4L309 156.4L351 280.1Z" fill="#464646" stroke="#464646"></path><path d="M380 600L485 600L456 486.3Z" fill="#303030" stroke="#303030"></path><path d="M511 520.3L620 511.3L543 442.6Z" fill="#fdfdfd" stroke="#fdfdfd"></path><path d="M532 600L620 511.3L511 520.3Z" fill="#5e5e5e" stroke="#5e5e5e"></path><path d="M582 164.4L441 180.4L516 251.1Z" fill="#aaaaaa" stroke="#aaaaaa"></path><path d="M441 180.4L441 120.7L366 180.4Z" fill="#5e5e5e" stroke="#5e5e5e"></path><path d="M241 255.1L178 346.9L280 308.9Z" fill="#8f8f8f" stroke="#8f8f8f"></path><path d="M178 346.9L181 424.6L309 397.6Z" fill="#303030" stroke="#303030"></path><path d="M613 225.1L582 164.4L516 251.1Z" fill="#c5c5c5" stroke="#c5c5c5"></path><path d="M485 600L532 600L511 520.3Z" fill="#c5c5c5" stroke="#c5c5c5"></path><path d="M355 91.7L309 156.4L366 180.4Z" fill="#8f8f8f" stroke="#8f8f8f"></path><path d="M309 156.4L167 132.4L241 255.1Z" fill="#e1e1e1" stroke="#e1e1e1"></path><path d="M241 255.1L146 275.1L178 346.9Z" fill="#8f8f8f" stroke="#8f8f8f"></path><path d="M441 120.7L355 91.7L366 180.4Z" fill="#1b1b1b" stroke="#1b1b1b"></path><path d="M423 0L355 91.7L441 120.7Z" fill="#1b1b1b" stroke="#1b1b1b"></path><path d="M167 132.4L146 275.1L241 255.1Z" fill="#8f8f8f" stroke="#8f8f8f"></path><path d="M178 346.9L120 326.9L181 424.6Z" fill="#aaaaaa" stroke="#aaaaaa"></path><path d="M620 511.3L697 476.3L619 406.6Z" fill="#fdfdfd" stroke="#fdfdfd"></path><path d="M619 406.6L716 312.9L589 319.9Z" fill="#5e5e5e" stroke="#5e5e5e"></path><path d="M690 600L697 476.3L620 511.3Z" fill="#464646" stroke="#464646"></path><path d="M187 600L241 600L222 487.3Z" fill="#c5c5c5" stroke="#c5c5c5"></path><path d="M222 487.3L241 600L276 518.3Z" fill="#c5c5c5" stroke="#c5c5c5"></path><path d="M697 476.3L716 312.9L619 406.6Z" fill="#5e5e5e" stroke="#5e5e5e"></path><path d="M613 225.1L663 129.4L582 164.4Z" fill="#aaaaaa" stroke="#aaaaaa"></path><path d="M663 129.4L564 103.7L582 164.4Z" fill="#5e5e5e" stroke="#5e5e5e"></path><path d="M582 164.4L564 103.7L441 180.4Z" fill="#1b1b1b" stroke="#1b1b1b"></path><path d="M532 600L621 600L620 511.3Z" fill="#1b1b1b" stroke="#1b1b1b"></path><path d="M146 275.1L120 326.9L178 346.9Z" fill="#464646" stroke="#464646"></path><path d="M70 535.3L187 600L222 487.3Z" fill="#303030" stroke="#303030"></path><path d="M849 361.9L737 267.1L716 312.9Z" fill="#1b1b1b" stroke="#1b1b1b"></path><path d="M716 312.9L737 267.1L613 225.1Z" fill="#5e5e5e" stroke="#5e5e5e"></path><path d="M95 438.6L222 487.3L181 424.6Z" fill="#303030" stroke="#303030"></path><path d="M715 136.4L663 129.4L613 225.1Z" fill="#8f8f8f" stroke="#8f8f8f"></path><path d="M120 326.9L95 438.6L181 424.6Z" fill="#aaaaaa" stroke="#aaaaaa"></path><path d="M800 600L750 460.6L697 476.3Z" fill="#c5c5c5" stroke="#c5c5c5"></path><path d="M697 476.3L750 460.6L716 312.9Z" fill="#303030" stroke="#303030"></path><path d="M150 81.7L167 132.4L299 127.7Z" fill="#c5c5c5" stroke="#c5c5c5"></path><path d="M299 127.7L167 132.4L309 156.4Z" fill="#464646" stroke="#464646"></path><path d="M146 275.1L82 273.1L120 326.9Z" fill="#8f8f8f" stroke="#8f8f8f"></path><path d="M621 600L690 600L620 511.3Z" fill="#1b1b1b" stroke="#1b1b1b"></path><path d="M76 135.4L82 273.1L146 275.1Z" fill="#aaaaaa" stroke="#aaaaaa"></path><path d="M120 326.9L0 345.9L95 438.6Z" fill="#767676" stroke="#767676"></path><path d="M578 0L423 0L564 103.7Z" fill="#1b1b1b" stroke="#1b1b1b"></path><path d="M564 103.7L423 0L441 120.7Z" fill="#000000" stroke="#000000"></path><path d="M355 91.7L293 0L299 127.7Z" fill="#fdfdfd" stroke="#fdfdfd"></path><path d="M737 267.1L715 136.4L613 225.1Z" fill="#8f8f8f" stroke="#8f8f8f"></path><path d="M663 129.4L630 46.7L564 103.7Z" fill="#1b1b1b" stroke="#1b1b1b"></path><path d="M423 0L366 0L355 91.7Z" fill="#303030" stroke="#303030"></path><path d="M849 361.9L766 218.1L737 267.1Z" fill="#fdfdfd" stroke="#fdfdfd"></path><path d="M737 267.1L766 218.1L715 136.4Z" fill="#464646" stroke="#464646"></path><path d="M735 48.7L630 46.7L663 129.4Z" fill="#1b1b1b" stroke="#1b1b1b"></path><path d="M366 0L293 0L355 91.7Z" fill="#c5c5c5" stroke="#c5c5c5"></path><path d="M0 512.3L70 535.3L95 438.6Z" fill="#767676" stroke="#767676"></path><path d="M95 438.6L70 535.3L222 487.3Z" fill="#c5c5c5" stroke="#c5c5c5"></path><path d="M293 0L150 81.7L299 127.7Z" fill="#1b1b1b" stroke="#1b1b1b"></path><path d="M167 132.4L76 135.4L146 275.1Z" fill="#e1e1e1" stroke="#e1e1e1"></path><path d="M630 46.7L578 0L564 103.7Z" fill="#8f8f8f" stroke="#8f8f8f"></path><path d="M733 0L592 0L630 46.7Z" fill="#fdfdfd" stroke="#fdfdfd"></path><path d="M630 46.7L592 0L578 0Z" fill="#767676" stroke="#767676"></path><path d="M150 81.7L76 135.4L167 132.4Z" fill="#fdfdfd" stroke="#fdfdfd"></path><path d="M82 273.1L0 345.9L120 326.9Z" fill="#1b1b1b" stroke="#1b1b1b"></path><path d="M833 499.3L841 433.6L750 460.6Z" fill="#1b1b1b" stroke="#1b1b1b"></path><path d="M750 460.6L849 361.9L716 312.9Z" fill="#fdfdfd" stroke="#fdfdfd"></path><path d="M841 433.6L849 361.9L750 460.6Z" fill="#767676" stroke="#767676"></path><path d="M0 222.1L0 345.9L82 273.1Z" fill="#464646" stroke="#464646"></path><path d="M0 345.9L0 413.6L95 438.6Z" fill="#303030" stroke="#303030"></path><path d="M900 237.1L802 162.4L766 218.1Z" fill="#464646" stroke="#464646"></path><path d="M766 218.1L802 162.4L715 136.4Z" fill="#464646" stroke="#464646"></path><path d="M715 136.4L735 48.7L663 129.4Z" fill="#c5c5c5" stroke="#c5c5c5"></path><path d="M800 600L833 499.3L750 460.6Z" fill="#5e5e5e" stroke="#5e5e5e"></path><path d="M690 600L800 600L697 476.3Z" fill="#fdfdfd" stroke="#fdfdfd"></path><path d="M0 512.3L47 600L70 535.3Z" fill="#5e5e5e" stroke="#5e5e5e"></path><path d="M70 535.3L47 600L187 600Z" fill="#fdfdfd" stroke="#fdfdfd"></path><path d="M810 73.7L735 48.7L715 136.4Z" fill="#c5c5c5" stroke="#c5c5c5"></path><path d="M76 135.4L0 222.1L82 273.1Z" fill="#8f8f8f" stroke="#8f8f8f"></path><path d="M0 413.6L0 512.3L95 438.6Z" fill="#e1e1e1" stroke="#e1e1e1"></path><path d="M293 0L151 0L150 81.7Z" fill="#1b1b1b" stroke="#1b1b1b"></path><path d="M150 81.7L75 58.7L76 135.4Z" fill="#1b1b1b" stroke="#1b1b1b"></path><path d="M76 135.4L0 158.4L0 222.1Z" fill="#5e5e5e" stroke="#5e5e5e"></path><path d="M118 0L75 58.7L150 81.7Z" fill="#8f8f8f" stroke="#8f8f8f"></path><path d="M0 52.7L0 158.4L76 135.4Z" fill="#8f8f8f" stroke="#8f8f8f"></path><path d="M849 361.9L900 237.1L766 218.1Z" fill="#464646" stroke="#464646"></path><path d="M900 425.6L900 359.9L849 361.9Z" fill="#303030" stroke="#303030"></path><path d="M900 425.6L849 361.9L841 433.6Z" fill="#464646" stroke="#464646"></path><path d="M900 425.6L841 433.6L900 475.3Z" fill="#c5c5c5" stroke="#c5c5c5"></path><path d="M151 0L118 0L150 81.7Z" fill="#fdfdfd" stroke="#fdfdfd"></path><path d="M75 58.7L0 52.7L76 135.4Z" fill="#c5c5c5" stroke="#c5c5c5"></path><path d="M900 475.3L841 433.6L833 499.3Z" fill="#5e5e5e" stroke="#5e5e5e"></path><path d="M776 0L733 0L735 48.7Z" fill="#5e5e5e" stroke="#5e5e5e"></path><path d="M735 48.7L733 0L630 46.7Z" fill="#303030" stroke="#303030"></path><path d="M810 73.7L715 136.4L802 162.4Z" fill="#8f8f8f" stroke="#8f8f8f"></path><path d="M0 512.3L0 600L47 600Z" fill="#767676" stroke="#767676"></path><path d="M900 109.7L810 73.7L802 162.4Z" fill="#5e5e5e" stroke="#5e5e5e"></path><path d="M900 600L900 475.3L833 499.3Z" fill="#464646" stroke="#464646"></path><path d="M900 359.9L900 237.1L849 361.9Z" fill="#aaaaaa" stroke="#aaaaaa"></path><path d="M900 0L776 0L810 73.7Z" fill="#767676" stroke="#767676"></path><path d="M810 73.7L776 0L735 48.7Z" fill="#464646" stroke="#464646"></path><path d="M900 237.1L900 165.4L802 162.4Z" fill="#fdfdfd" stroke="#fdfdfd"></path><path d="M0 0L0 52.7L75 58.7Z" fill="#c5c5c5" stroke="#c5c5c5"></path><path d="M800 600L900 600L833 499.3Z" fill="#000000" stroke="#000000"></path><path d="M900 165.4L900 109.7L802 162.4Z" fill="#8f8f8f" stroke="#8f8f8f"></path><path d="M118 0L0 0L75 58.7Z" fill="#aaaaaa" stroke="#aaaaaa"></path><path d="M900 109.7L900 0L810 73.7Z" fill="#464646" stroke="#464646"></path></g></svg>